# xmcd
#
# Track frame offsets:
#	150
#	7737
#	21702
#	29395
#	35754
#	48748
#	60421
#	75396
#	91696
#	102364
#	117639
#	124169
#	134941
#	146423
#	155874
#	168553
#	176123
#	182373
#	193696
#	204873
#
# Disc length: 2875 seconds
#
# Revision: 0
# Processed by: cddbd v1.5.2PL0 Copyright (c) Steve Scherf et al.
# Submitted via: EasyCDDAExtractor 2010.6.0.0
#
DISCID=1c0b3914
DTITLE=Various Artist - Cowboy Crooners Sing Songs Of The West Cd 1
DYEAR=1900
DGENRE=
TTITLE0=Sons Of The Pioneers - Timber Trail (Radio)
TTITLE1=Davis Jimmie - It Makes No Difference Now (Radio)
TTITLE2=Ritter Tex - Bo Weevil (Radio)
TTITLE3=Johnson Sisters - Ridin' Down The Trail (Radio)
TTITLE4=Randall Cowboy Joe - Gonna Build A Big Fence Around Texas (Radio)
TTITLE5=Riders Of The Purple Sage - Cool Water (Radio)
TTITLE6=Cooley Spade - Shame On You (Radio)
TTITLE7=Wills Bob and Laura Lee - Too Late (Radio)
TTITLE8=Rogers Roy and Sons Of The Pioneers - Rock Me To Sleep In My Saddle (Rad
TTITLE8=io)
TTITLE9=Evans Dale - Frankie And Johnny (Radio)
TTITLE10=Rhubarb Red - Little Green Valley (Radio)
TTITLE11=Williams Tex - Let's Live A Little (Radio)
TTITLE12=Wills Bob - My Confession (Radio)
TTITLE13=Canova Judy - Along The Navajo Trail (Radio)
TTITLE14=Wills Bob - Right Or Wrong (Radio)
TTITLE15=Wills Johnnie Lee - Down Along The Sleepy Rio Grande (Radio)
TTITLE16=Plainsmen - Old Saddle Pony (Radio)
TTITLE17=Arnold Eddy - I'll Have To Live And Learn (Radio)
TTITLE18=Evans Dale - My Heart Is Down Texas Way (Radio)
TTITLE19=Riders Of The Purple Sage - New San Antonio Rose (Radio)
EXTD=
EXTT0=
EXTT1=
EXTT2=
EXTT3=
EXTT4=
EXTT5=
EXTT6=
EXTT7=
EXTT8=
EXTT9=
EXTT10=
EXTT11=
EXTT12=
EXTT13=
EXTT14=
EXTT15=
EXTT16=
EXTT17=
EXTT18=
EXTT19=
PLAYORDER=
